<svg xmlns="http://www.w3.org/2000/svg" viewBox="0 0 954 349.44"><defs><style>.cls-1{fill:#1d1d1b;}.cls-2{fill:#ea5539;}</style></defs><title>Ресурс 1</title><g id="Слой_2" data-name="Слой 2"><g id="Слой_1-2" data-name="Слой 1"><path class="cls-1" d="M172.94,316.82a17.07,17.07,0,0,1,3.44,10.53,16.84,16.84,0,0,1-4.59,11.77,29.11,29.11,0,0,1-12.4,7.66,53,53,0,0,1-17.2,2.66,66.81,66.81,0,0,1-15.07-1.77,63.64,63.64,0,0,1-14.64-5.32L118.63,328a45.37,45.37,0,0,0,10.47,3.8,47.37,47.37,0,0,0,10.79,1.31,24.73,24.73,0,0,0,11.26-2.24q4.38-2.25,4.38-6.31a5.2,5.2,0,0,0-2.71-4.8,14.63,14.63,0,0,0-7.3-1.56H126.86V303.06h17a10.88,10.88,0,0,0,6.47-1.67,5.28,5.28,0,0,0,2.29-4.48,6,6,0,0,0-3.54-5.48,19.24,19.24,0,0,0-9.18-1.92,39.1,39.1,0,0,0-9.69,1.3,44.68,44.68,0,0,0-9.7,3.7l-6-15.64a58.28,58.28,0,0,1,25.64-5.63,52.37,52.37,0,0,1,16.63,2.56,28.94,28.94,0,0,1,12.19,7.35,15.94,15.94,0,0,1,4.54,11.36,16.16,16.16,0,0,1-2.66,9.12,18.11,18.11,0,0,1-7.35,6.31A20.72,20.72,0,0,1,172.94,316.82Z"/><path class="cls-1" d="M207.8,344.44a37.31,37.31,0,0,1,0-66.09,46.6,46.6,0,0,1,41.6,0,37.31,37.31,0,0,1,0,66.09,46.6,46.6,0,0,1-41.6,0Zm30.81-14.8a18.86,18.86,0,0,0,7.09-7.35,24.13,24.13,0,0,0,0-21.79,18.86,18.86,0,0,0-7.09-7.35,20.57,20.57,0,0,0-20,0,18.79,18.79,0,0,0-7.09,7.35,24.13,24.13,0,0,0,0,21.79,18.79,18.79,0,0,0,7.09,7.35,20.57,20.57,0,0,0,20,0Z"/><path class="cls-1" d="M300.47,344.44a37.31,37.31,0,0,1,0-66.09,46.58,46.58,0,0,1,41.59,0,37.31,37.31,0,0,1,0,66.09,46.58,46.58,0,0,1-41.59,0Zm30.8-14.8a18.72,18.72,0,0,0,7.09-7.35,24,24,0,0,0,0-21.79,18.72,18.72,0,0,0-7.09-7.35,20.55,20.55,0,0,0-20,0,18.79,18.79,0,0,0-7.09,7.35,24.13,24.13,0,0,0,0,21.79,18.79,18.79,0,0,0,7.09,7.35,20.55,20.55,0,0,0,20,0Z"/><path class="cls-1" d="M443.85,347.88l-.1-38.67L425,340.69h-9.18L397.05,310v37.84h-19v-73h17L420.71,317l25-42.11h17l.21,73Z"/><path class="cls-1" d="M534,333.7H503.17l-5.74,14.18H476.38l32.21-73h20.32l32.32,73H539.75Zm-6-15.22-9.38-23.35-9.38,23.35Z"/><path class="cls-1" d="M628.15,291.28h-33v56.6H574.78v-73h53.47Z"/><path class="cls-1" d="M678.7,333.7H647.85l-5.73,14.18H621.06l32.21-73H673.6l32.31,73H684.44Zm-6-15.22-9.38-23.35-9.38,23.35Z"/><path class="cls-1" d="M774.08,316.82a17.61,17.61,0,0,1-1.14,22.3,29.15,29.15,0,0,1-12.41,7.66,52.9,52.9,0,0,1-17.2,2.66,66.79,66.79,0,0,1-15.06-1.77,63.89,63.89,0,0,1-14.65-5.32L719.77,328a45.44,45.44,0,0,0,10.48,3.8A47.31,47.31,0,0,0,741,333.08a24.73,24.73,0,0,0,11.26-2.24q4.38-2.25,4.38-6.31a5.2,5.2,0,0,0-2.71-4.8,14.63,14.63,0,0,0-7.3-1.56H728V303.06h17a10.84,10.84,0,0,0,6.46-1.67,5.27,5.27,0,0,0,2.3-4.48,6,6,0,0,0-3.55-5.48,19.17,19.17,0,0,0-9.17-1.92,39.24,39.24,0,0,0-9.7,1.3,44.8,44.8,0,0,0-9.69,3.7l-6-15.64a58.33,58.33,0,0,1,25.65-5.63,52.3,52.3,0,0,1,16.62,2.56,29,29,0,0,1,12.2,7.35,16,16,0,0,1,4.53,11.36,16.15,16.15,0,0,1-2.65,9.12,18.18,18.18,0,0,1-7.35,6.31A20.64,20.64,0,0,1,774.08,316.82Z"/><path class="cls-1" d="M793.89,274.91h20.32v42.84l30.13-42.84h19.39v73H843.4V305.14l-30,42.74H793.89Z"/><path class="cls-1" d="M954,274.91v73H933.36V319.42H905.22v28.46H884.58v-73h20.64v27.42h28.14V274.91Z"/><path class="cls-2" d="M524.28,172.86c2.62,79.6-116.14,91.71-129.65,14.51C378.63,97.92,521.12,79.82,524.28,172.86Zm-33.68-.8c-1.43-42.67-65-35.13-62.08,5.84C432.17,216.18,492.14,209.74,490.6,172.06Z"/><path class="cls-2" d="M384.59,172.86c2.62,79.6-116.14,91.71-129.65,14.51C238.94,97.92,381.43,79.82,384.59,172.86Zm-33.68-.8c-1.43-42.67-65.05-35.13-62.08,5.84C292.48,216.18,352.45,209.74,350.91,172.06Z"/><path class="cls-2" d="M652.89,133.84c-13.65,5.61-39.14,7.75-46,7.5-6.54.26-11.84.14-15.58,0-4-.18-8-.11-12-.22-5.95-.17-7.91.17-8.58.83-1.37,1.38-.53,2.55-.67,12.1,0,3.67,0,7.32.09,11,0,1.94,0,3.06.44,3.43s3.55.56,7.24.59c6.56.05,17,.17,23.8.06,6,0,8.06.24,16.19.24,2.07,0,1.82,3.9,1.85,8.49,0,5.41.35,10.71.19,16.7-.1,3.65-.67,4-4.25,4.07-12.16.35-24.36.29-36.51.42-4.68,0-6.85,0-7.56.8-.48.39-.58,1.38-.58,3.69-.29,7.07-.1,17.77-.39,24.85a44.41,44.41,0,0,1-.31,6.22c-.71,5.54-5.28,4.19-10.17,4.44-7.57,0-12,0-20-.36-1.27-.06-3.61-.2-5-1.84s-1.2-3.94-1.22-4.59c-.28-13.62.13-116.64.42-118.78.46-5.24.48-4.79,5.68-5.33h3.26c5.42.46,47.52.14,54,.23,29.9-.94,51.5-9.56,63.52-24.41C670,72.48,671.42,54,671.66,49.41c0-.42,0-.75.05-1,.94-22.5-5.19-31.27-2.08-33.54C673,12.35,684,20,689.93,28.15a53.27,53.27,0,0,1,7.46,16.09,57.35,57.35,0,0,1,1.69,7.68C705.56,95.43,685.26,120.51,652.89,133.84Z"/><path class="cls-2" d="M354.91,59.11c-3.42-.74-5.58,8.11-14.23,12,0,0-5,2.24-12.87,1.36-12.61-1.4-34.37-29.13-54.19-70.87-.51-.67-1.18-1-3.47-1.34C265.42,0,260.7.05,255.35.09c-5.2.05-7-.16-14.48-.06a3,3,0,0,0-3.23,2.44c-.16.68-.28,1.29-.41,1.84s-.29,1.15-.42,1.83C235.47,14.72,214.28,131.75,212.9,141s-2.53,16.85-4,26.29c-.67,4.24-.7,4.32-.83,5.19a13.33,13.33,0,0,1-.51,2.25c-.19.61-.44.9-.7.9-.54,0-1.05-.42-1.53-1.32a25,25,0,0,1-1.12-2.34c-1.09-2.56-14.7-35.5-15.87-36.55a5.12,5.12,0,0,0-3.11-1.05c-4-.16-13.08-.19-13.08-.19-5.88.09-11.69-.32-13.54,1.46a6.28,6.28,0,0,0-.76,1s-15.64,26.47-18.58,31.3c-1,1.65-1.15,1.69-1.48,1.76a1.27,1.27,0,0,1-1.44-.67c-.19-.48-.86-2.79-1-3.18-1.35-4.92-2.15-8-3.4-13s-2.49-10-3.83-15c-.41-1.77-.86-3.86-1.34-6.24s-.92-4.83-1.4-7.27-1-4.82-1.44-7.14-1-4.44-1.5-6.33a6,6,0,0,0-.92-1.87,2.84,2.84,0,0,0-2.14-.61c-11,0-25.43,0-28.8,0-1.91,0-3.28.16-4.18.84l-.16.12a3.88,3.88,0,0,0-1.12,1.58c-23.92,57.64-48.64,67.6-48.64,67.6-2.93,1.18-7.3,2.94-12.64,2-11.7-2-16.69-14.78-21-13.14C-.7,168.73,0,178.29.12,179.44c1.12,14.59,13,23.71,14.6,25,5.69,4.44,13.36,7.48,23.67,7.86,54.88,2,54.17-61.94,54.14-63.65q.24,1.17.48,2.22,2.44,10.47,4.76,20.87t4.56,21c1.63,7.23,3.29,14.4,5,21.57s3.54,15,5.17,22.24c.54,1.9,3.66,1.78,5.54,1.78,11.51,0,13.54.09,22.46,0,1.51,0,2.16-1.51,3.54-4.41,4-8.37,7.8-16.45,11.53-24.87s6.92-17.42,11.52-25.46c.25-.39.75-2,2-1.95a1.79,1.79,0,0,1,1.88,1.48c1.54,4.17,3.29,8.22,5,12.24s3.52,8.07,5.27,12.15,3.48,8.2,5.17,12.39,3.42,8.32,5.17,12.57a9.63,9.63,0,0,0,2.75,4.28c1.15,1,2.8,1.17,5,1.22,12,.28,23.46.13,28.18,0,2.17-.13,3.45-.45,3.87-.9a12.7,12.7,0,0,0,1.4-4q.63-3.28,1.53-6.85c.61-2.38,1.12-4.76,1.54-7.07,1.46-9,3-18,4.56-27s3.13-18,4.76-27.17c1.5-7.75,2.93-16.11,4.37-25.05.92-5.82,10.31-57.44,17.11-94.77,1,15.34,7.82,60.33,54,58.62,10.05-.37,17.59-3.28,23.24-7.54,1.83-1.38,14.79-11,15-25.29C359,66.2,357.71,59.71,354.91,59.11Z"/><path class="cls-1" d="M660.9,238.76a16.45,16.45,0,0,1-2.23-.37,16.75,16.75,0,0,1-2.14-.51,19,19,0,0,1-2-.6A22,22,0,0,1,651.2,236a31.32,31.32,0,0,1-2.81-1.48l-2.15-1.41-1.41-1-1.63-1.41c.82-1,1.71-2.22,2.82-3.62l3.92-5.11,1.7,1.33a6.39,6.39,0,0,0,1.33.89l2.6,1.56a12.23,12.23,0,0,0,3.55,1.4,13.6,13.6,0,0,0,3.92.52,10.48,10.48,0,0,0,1.48-.07l1.48-.3a4.52,4.52,0,0,0,1.33-.44l1.34-.67a11.45,11.45,0,0,0,1-.74,5,5,0,0,0,.67-.89,3.05,3.05,0,0,0,.44-1,5.44,5.44,0,0,0,.15-1,5.5,5.5,0,0,0-.3-1.18,2.27,2.27,0,0,0-.66-1l-.89-.66a3,3,0,0,0-.82-.45l-.81-.37-1.19-.44-2.73-.89-4.82-1.7c-.81-.3-1.62-.6-2.44-1a18.21,18.21,0,0,1-2.15-1,22.13,22.13,0,0,1-3.4-2.22,16.3,16.3,0,0,1-2.67-2.81,14.21,14.21,0,0,1-1.85-3.41,12.7,12.7,0,0,1-.81-3.7,13.87,13.87,0,0,1,.07-3.92,18.59,18.59,0,0,1,1.11-3.7,14.42,14.42,0,0,1,2.08-3.41,16,16,0,0,1,3-3,10.86,10.86,0,0,1,1.7-1.18l2.52-1.34a11.71,11.71,0,0,1,3.26-1.11,20.71,20.71,0,0,1,3.84-.36,22,22,0,0,1,3.78.36,19,19,0,0,1,3.85,1,26.22,26.22,0,0,1,3.85,1.78l4,2.44,1.71,1.11-2.67,3.78c-1.11,1.55-2.22,3.33-3.63,5.33L672,198.42l-1.48-1-2.3-1.19a12.25,12.25,0,0,0-2.74-1,11.1,11.1,0,0,0-2.73-.37,6.79,6.79,0,0,0-1.19.07l-1.11.3a2.22,2.22,0,0,0-1,.44,4.19,4.19,0,0,0-1,.59,14.57,14.57,0,0,0-1,1,5.15,5.15,0,0,0-.74,1,3.23,3.23,0,0,0-.37,1.11,3.14,3.14,0,0,0-.07,1.18,3.38,3.38,0,0,0,.29,1,7.84,7.84,0,0,0,.59,1,3.36,3.36,0,0,0,.89.82,5.54,5.54,0,0,0,1,.73l1.7.82,2,.74,2.07.74,2.08.67c.59.22,1.18.37,1.7.51a13.44,13.44,0,0,1,1.55.52l1.41.52,1.18.52a13.94,13.94,0,0,1,3.63,2.29,15.52,15.52,0,0,1,2.81,3,13.22,13.22,0,0,1,1.85,3.55,10,10,0,0,1,.74,3.92v.89a14.55,14.55,0,0,1-.44,3.63A12.5,12.5,0,0,1,680,230a14.28,14.28,0,0,1-2.51,3.33,16.45,16.45,0,0,1-3.26,2.59,25,25,0,0,1-5.33,2.22c-1,.22-1.85.44-2.81.59s-2,.15-3,.15A20.59,20.59,0,0,1,660.9,238.76Z"/><path class="cls-1" d="M720.77,237.88V196.35H704.26V185h44.49v11.4H732.17v41.53Z"/><path class="cls-1" d="M790.2,238.1a21.68,21.68,0,0,1-6.52-2.67,34.09,34.09,0,0,1-5.55-4.14,27.76,27.76,0,0,1-4.29-5.33,27.28,27.28,0,0,1-1.7-3.26,24.86,24.86,0,0,1-1.34-3.55,23.2,23.2,0,0,1-.81-3.78,22.7,22.7,0,0,1-.3-3.85,29,29,0,0,1,1.11-7.7,25.32,25.32,0,0,1,1.34-3.55,34.9,34.9,0,0,1,1.7-3.33,27.76,27.76,0,0,1,4.29-5.33,34.09,34.09,0,0,1,5.55-4.14,21.68,21.68,0,0,1,6.52-2.67,28.81,28.81,0,0,1,14.21,0,25.81,25.81,0,0,1,6.51,2.67,31.53,31.53,0,0,1,5.56,4.14,28.15,28.15,0,0,1,4.29,5.33,34.9,34.9,0,0,1,1.7,3.33,26.63,26.63,0,0,1,1.34,3.55,36.41,36.41,0,0,1,.81,3.78,23,23,0,0,1,.3,3.92,36.21,36.21,0,0,1-1,7,23.57,23.57,0,0,1-2.66,6.51,33.72,33.72,0,0,1-4.15,5.55,27.09,27.09,0,0,1-5.33,4.29,35,35,0,0,1-3.33,1.71,24.84,24.84,0,0,1-3.55,1.33,22,22,0,0,1-3.7.74,23,23,0,0,1-3.93.3A28.37,28.37,0,0,1,790.2,238.1ZM793.31,196a18,18,0,0,0-3.7,1.55,14.34,14.34,0,0,0-3.19,2.45,12.53,12.53,0,0,0-2.51,3.1l-1,1.93c-.29.67-.51,1.41-.74,2.07a17.33,17.33,0,0,0-.51,2.15,17.63,17.63,0,0,0,0,4.59,17.33,17.33,0,0,0,.51,2.15c.23.66.45,1.33.74,2l1,1.93a12.76,12.76,0,0,0,2.51,3.11,14.6,14.6,0,0,0,3.19,2.44,17.82,17.82,0,0,0,3.7,1.63,14.09,14.09,0,0,0,4,.52,20.43,20.43,0,0,0,2.22-.15,18.29,18.29,0,0,0,2.15-.52,20.22,20.22,0,0,0,2-.74,15,15,0,0,0,1.85-1,20.11,20.11,0,0,0,3.11-2.51,18,18,0,0,0,2.37-3.26,20.09,20.09,0,0,0,1.55-3.78,15,15,0,0,0,.52-4.07,20.81,20.81,0,0,0-.15-2.29,10.07,10.07,0,0,0-.51-2.15c-.23-.66-.45-1.4-.74-2.07s-.67-1.26-1-1.93a16.24,16.24,0,0,0-2.44-3.1,14.57,14.57,0,0,0-3.19-2.45,18,18,0,0,0-3.7-1.55,15.61,15.61,0,0,0-8,0Z"/><path class="cls-1" d="M861.85,219.59v18.29H850.52v-53h20.29a17.18,17.18,0,0,1,6.58,1.25,16,16,0,0,1,5.48,3.78,18,18,0,0,1,3.63,5.62,17.6,17.6,0,0,1,1.18,6.67,18.76,18.76,0,0,1-.66,5.11,15.59,15.59,0,0,1-2.08,4.51,16.52,16.52,0,0,1-3.48,3.77,22.52,22.52,0,0,1-5,2.82l5.78,5.92c2.29,2.37,5,5.11,8.07,8.29l-3.26,3.11L882.5,240l-8.07-8.51-11.18-11.92Zm-.08-11h9a5.84,5.84,0,0,0,2.29-.44,4.78,4.78,0,0,0,1.86-1.41,7.81,7.81,0,0,0,1.33-2,5.46,5.46,0,0,0,.44-2.22,5.84,5.84,0,0,0-.44-2.29,8,8,0,0,0-1.33-2,4.78,4.78,0,0,0-1.86-1.41,5.84,5.84,0,0,0-2.29-.44h-9Z"/><path class="cls-1" d="M917.28,237.88V185h36.27v11.4H928.31v9.55H951v10.88H928.31v9.7H954v11.4Z"/></g></g></svg>