<svg xmlns="http://www.w3.org/2000/svg"
     viewBox="0 0 512 373.19">
    <defs>
        <style>.cls-1{fill:#202020;}.cls-2{fill:#202020f;}</style>
    </defs>
    <title>adaptive</title><g>
    <g id="Layer_1" data-name="Layer 1">
        <path class="cls-1" d="M482,20H200.29A30,30,0,0,0,172,0H112A30.06,30.06,0,0,0,83.72,20H30A30,30,0,0,0,0,50V150a30,30,0,0,0,30,30H83.72A30.06,30.06,0,0,0,112,200h60a30,30,0,0,0,28.28-20H246v83.25c.53,13.27,19.48,13.26,20,0V180H482a30,30,0,0,0,30-30V50A30,30,0,0,0,482,20ZM200.29,160A30,30,0,0,0,172,140H152V110h40c13.27-.53,13.26-19.48,0-20H152V60h20a30,30,0,0,0,28.28-20H396.14l52.93,52.93a10.12,10.12,0,0,1,0,14.14L396.14,160ZM20,150V50A10,10,0,0,1,30,40H82V160H30A10,10,0,0,1,20,150Zm152,30H112a10,10,0,0,1-10-10V30a10,10,0,0,1,10-10h60c13.27.55,13.26,19.45,0,20H142a10,10,0,0,0-10,10V90c-13.27.53-13.26,19.48,0,20v40a10,10,0,0,0,10,10h30C185.28,160.55,185.27,179.45,172,180Zm320-30a10,10,0,0,1-10,10H424.42l38.79-38.79c11.61-11.13,11.61-31.29,0-42.42L424.42,40H482a10,10,0,0,1,10,10Z"/><path class="cls-2" d="M141.83,316.63c.8,3-.05,5.52-.86,8.91a38.62,38.62,0,0,0,.26,19.06c13.39,45,78,33.92,76.19-12.49l95-25.46a38.51,38.51,0,0,0,44.8,20.22c27.89-7.2,38.35-43.35,18.13-64.14-2.4-2.53-4.4-4.3-5.2-7.29s.05-5.51.87-8.9a38.74,38.74,0,0,0-.27-19.06c-13.56-45-78.29-33.81-76.2,12.49l-95,25.46c-21.65-41.12-83.14-18.34-72.23,27.29a38.58,38.58,0,0,0,9.3,16.63c2.4,2.53,4.4,4.3,5.2,7.28Z"/></g></g></svg>