<svg xmlns="http://www.w3.org/2000/svg" viewBox="0 0 700.28 239.34"><defs><style>.cls-1{fill:#353535;}</style></defs><title>big-woof</title><g id="Слой_2" data-name="Слой 2"><g id="Слой_1-2" data-name="Слой 1"><path class="cls-1" d="M524.28,172.86c2.62,79.6-116.14,91.71-129.65,14.51C378.63,97.92,521.12,79.82,524.28,172.86Zm-33.68-.8c-1.43-42.67-65-35.13-62.08,5.84C432.17,216.18,492.14,209.74,490.6,172.06Z"/><path class="cls-1" d="M384.59,172.86c2.62,79.6-116.14,91.71-129.65,14.51C238.94,97.92,381.43,79.82,384.59,172.86Zm-33.68-.8c-1.43-42.67-65.05-35.13-62.08,5.84C292.48,216.18,352.45,209.74,350.91,172.06Z"/><path class="cls-1" d="M652.89,133.84c-13.65,5.61-39.14,7.75-46,7.5-6.54.26-11.84.14-15.58,0-4-.18-8-.11-12-.22-5.95-.17-7.91.17-8.58.83-1.37,1.38-.53,2.55-.67,12.1,0,3.67,0,7.32.09,11,0,1.94,0,3.06.44,3.43s3.55.56,7.24.59c6.56.05,17,.17,23.8.06,6,0,8.06.24,16.19.24,2.07,0,1.82,3.9,1.85,8.49,0,5.41.35,10.71.19,16.7-.1,3.65-.67,4-4.25,4.07-12.16.35-24.36.29-36.51.42-4.68,0-6.85,0-7.56.8-.48.39-.58,1.38-.58,3.69-.29,7.07-.1,17.77-.39,24.85a44.41,44.41,0,0,1-.31,6.22c-.71,5.54-5.28,4.19-10.17,4.44-7.57,0-12,0-20-.36-1.27-.06-3.61-.2-5-1.84s-1.2-3.94-1.22-4.59c-.28-13.62.13-116.64.42-118.78.46-5.24.48-4.79,5.68-5.33h3.26c5.42.46,47.52.14,54,.23,29.9-.94,51.5-9.56,63.52-24.41C670,72.48,671.42,54,671.66,49.41c0-.42,0-.75.05-1,.94-22.5-5.19-31.27-2.08-33.54C673,12.35,684,20,689.93,28.15a53.27,53.27,0,0,1,7.46,16.09,57.35,57.35,0,0,1,1.69,7.68C705.56,95.43,685.26,120.51,652.89,133.84Z"/><path class="cls-1" d="M354.91,59.11c-3.42-.74-5.58,8.11-14.23,12,0,0-5,2.24-12.87,1.36-12.61-1.4-34.37-29.13-54.19-70.87-.51-.67-1.18-1-3.47-1.34C265.42,0,260.7.05,255.35.09c-5.2.05-7-.16-14.48-.06a3,3,0,0,0-3.23,2.44c-.16.68-.28,1.29-.41,1.84s-.29,1.15-.42,1.83C235.47,14.72,214.28,131.75,212.9,141s-2.53,16.85-4,26.29c-.67,4.24-.7,4.32-.83,5.19a13.33,13.33,0,0,1-.51,2.25c-.19.61-.44.9-.7.9-.54,0-1.05-.42-1.53-1.32a25,25,0,0,1-1.12-2.34c-1.09-2.56-14.7-35.5-15.87-36.55a5.12,5.12,0,0,0-3.11-1.05c-4-.16-13.08-.19-13.08-.19-5.88.09-11.69-.32-13.54,1.46a6.28,6.28,0,0,0-.76,1s-15.64,26.47-18.58,31.3c-1,1.65-1.15,1.69-1.48,1.76a1.27,1.27,0,0,1-1.44-.67c-.19-.48-.86-2.79-1-3.18-1.35-4.92-2.15-8-3.4-13s-2.49-10-3.83-15c-.41-1.77-.86-3.86-1.34-6.24s-.92-4.83-1.4-7.27-1-4.82-1.44-7.14-1-4.44-1.5-6.33a6,6,0,0,0-.92-1.87,2.84,2.84,0,0,0-2.14-.61c-11,0-25.43,0-28.8,0-1.91,0-3.28.16-4.18.84l-.16.12a3.88,3.88,0,0,0-1.12,1.58c-23.92,57.64-48.64,67.6-48.64,67.6-2.93,1.18-7.3,2.94-12.64,2-11.7-2-16.69-14.78-21-13.14C-.7,168.73,0,178.29.12,179.44c1.12,14.59,13,23.71,14.6,25,5.69,4.44,13.36,7.48,23.67,7.86,54.88,2,54.17-61.94,54.14-63.65q.24,1.17.48,2.22,2.44,10.47,4.76,20.87t4.56,21c1.63,7.23,3.29,14.4,5,21.57s3.54,15,5.17,22.24c.54,1.9,3.66,1.78,5.54,1.78,11.51,0,13.54.09,22.46,0,1.51,0,2.16-1.51,3.54-4.41,4-8.37,7.8-16.45,11.53-24.87s6.92-17.42,11.52-25.46c.25-.39.75-2,2-1.95a1.79,1.79,0,0,1,1.88,1.48c1.54,4.17,3.29,8.22,5,12.24s3.52,8.07,5.27,12.15,3.48,8.2,5.17,12.39,3.42,8.32,5.17,12.57a9.63,9.63,0,0,0,2.75,4.28c1.15,1,2.8,1.17,5,1.22,12,.28,23.46.13,28.18,0,2.17-.13,3.45-.45,3.87-.9a12.7,12.7,0,0,0,1.4-4q.63-3.28,1.53-6.85c.61-2.38,1.12-4.76,1.54-7.07,1.46-9,3-18,4.56-27s3.13-18,4.76-27.17c1.5-7.75,2.93-16.11,4.37-25.05.92-5.82,10.31-57.44,17.11-94.77,1,15.34,7.82,60.33,54,58.62,10.05-.37,17.59-3.28,23.24-7.54,1.83-1.38,14.79-11,15-25.29C359,66.2,357.71,59.71,354.91,59.11Z"/></g></g></svg>