<svg xmlns="http://www.w3.org/2000/svg"
     viewBox="0 0 68.16 70.85">
    <g>
        <g>
            <path d="M25.58,53a8.95,8.95,0,1,0,9,8.94A8.95,8.95,0,0,0,25.58,53Zm0,12.52a3.58,3.58,0,1,1,3.58-3.58A3.58,3.58,0,0,1,25.58,65.48Z"/><path d="M52.06,53A8.95,8.95,0,1,0,61,61.9,8.95,8.95,0,0,0,52.06,53Zm0,12.52a3.58,3.58,0,1,1,3.58-3.58A3.59,3.59,0,0,1,52.06,65.48Z"/><path d="M67.58,17.47a2.68,2.68,0,0,0-2.1-1h-47L16.05,4.13A2.68,2.68,0,0,0,13.9,2L3.17.05a2.68,2.68,0,1,0-1,5.27L11.14,7,19,46.77a2.68,2.68,0,0,0,2.63,2.16H59.22a2.67,2.67,0,0,0,2.61-2.08l6.26-27.1A2.67,2.67,0,0,0,67.58,17.47ZM57.08,43.56H23.85l-4.3-21.73H62.1Z"/></g></g></svg>