<svg xmlns="http://www.w3.org/2000/svg"
        viewBox="0 0 137.79 137.8">
    <defs><style>.cls-1{fill:#202020;}.cls-2{fill:#202020;}</style></defs>
    <title>cats-logo</title><g id="Слой_2" data-name="Слой 2"><g id="Layer_1" data-name="Layer 1"><path class="cls-1" d="M19.38,53.08c6.27-6.92,13.4-14.35,22.83-19.52C35.44,25.73,28,20.09,23,19.06c0,0-4.47,13.35-3.58,33.33Z"/><path class="cls-1" d="M42.21,33.56a75.76,75.76,0,0,1,12,18.69L59.08,50,68.9,62,78.72,50l4.83,2.3a76,76,0,0,1,12-18.69A54.17,54.17,0,0,0,68.9,26.91,54.21,54.21,0,0,0,42.21,33.56Z"/><path class="cls-1" d="M95.58,33.56c9.44,5.17,16.56,12.6,22.83,19.52v-.69c.89-20-3.58-33.33-3.58-33.33C109.84,20.09,102.36,25.73,95.58,33.56Z"/><path class="cls-2" d="M136.45,66.57a36.81,36.81,0,0,1-7.1-5.68c5.15-22.74,1.25-46.31-4.75-59.38A2.7,2.7,0,0,0,121.7,0C105.65,3,92.59,12,83.84,26A63.16,63.16,0,0,0,54,26C45.21,12,32.15,3,16.09,0a2.7,2.7,0,0,0-2.9,1.47c-6,13.14-9.89,36.57-4.75,59.38a37.07,37.07,0,0,1-7.09,5.68A2.68,2.68,0,0,0,0,69.2c4.3,31.23,25.71,69.27,68.88,68.59,43.27.65,64.56-37.42,68.88-68.59A2.68,2.68,0,0,0,136.45,66.57ZM120.57,5.76c5.25,14.34,7.62,29.37,4.24,50.37-9.71-10.61-19.16-22.31-35.64-28.46a49.87,49.87,0,0,1,31.4-21.91ZM13.19,19.84a80.92,80.92,0,0,1,4-14.08,49.85,49.85,0,0,1,31.4,21.91C32.14,33.82,22.7,45.52,13,56.13A99.66,99.66,0,0,1,13.19,19.84Zm108.46,80.85c-21.46,42.37-83.87,42.44-105.43.14A98.47,98.47,0,0,1,5.61,70.25c4.8-3.21,9.27-8.17,14-13.39C31.11,44.08,44.17,29.6,68.9,29.6s37.78,14.48,49.31,27.26c4.7,5.22,9.17,10.18,14,13.39A98.21,98.21,0,0,1,121.65,100.69Z"/><path class="cls-2" d="M41.73,74.25a2.7,2.7,0,0,0,3.68-1,2.66,2.66,0,0,1,4.59,0,2.7,2.7,0,0,0,2.33,1.35,2.76,2.76,0,0,0,1.35-.36,2.7,2.7,0,0,0,1-3.68,8.06,8.06,0,0,0-13.91,0,2.69,2.69,0,0,0,1,3.68Z"/><path class="cls-2" d="M84.12,74.25a2.7,2.7,0,0,0,3.68-1,2.66,2.66,0,0,1,4.59,0,2.69,2.69,0,1,0,4.66-2.69,8.07,8.07,0,0,0-13.92,0,2.7,2.7,0,0,0,1,3.68Z"/><path class="cls-2" d="M41.53,86.15a2.69,2.69,0,0,0,1.73-5.1c-6-2-14.57-.58-19,3.28a2.69,2.69,0,1,0,3.54,4c3-2.64,9.44-3.68,13.72-2.23Z"/><path class="cls-2" d="M113.52,84.33c-4.42-3.86-12.93-5.33-19-3.28a2.69,2.69,0,1,0,1.73,5.1c4.28-1.45,10.69-.41,13.71,2.23a2.66,2.66,0,0,0,1.77.67,2.69,2.69,0,0,0,1.77-4.72Z"/><path class="cls-2" d="M92.07,90A2.69,2.69,0,0,0,90.17,95a10.6,10.6,0,0,1-18.33-2.52,11.15,11.15,0,0,0,7.82-10.36c0-4.41-4.42-7.49-10.76-7.49S58.13,77.7,58.13,82.11A11.16,11.16,0,0,0,66,92.47,10.59,10.59,0,0,1,47.63,95,2.69,2.69,0,0,0,45.72,90c-6.26,1.25-12.9,6.78-14.8,12.33a2.69,2.69,0,1,0,5.1,1.74c.88-2.59,3.51-5.33,6.49-7.09a16,16,0,0,0,15.62,7.47v.74c.6,14.28,20.94,14.27,21.53,0v-.74A16,16,0,0,0,95.29,97c3,1.76,5.6,4.5,6.49,7.09a2.69,2.69,0,1,0,5.09-1.74C105,96.82,98.33,91.29,92.07,90ZM63.51,82.11c0-1,2.31-2.11,5.39-2.11a9.51,9.51,0,0,1,4.29.89c1.09.58,1.09,1.06,1.09,1.22a5.77,5.77,0,0,1-5.38,5.42A5.78,5.78,0,0,1,63.51,82.11Zm10.77,23.12a5.38,5.38,0,0,1-10.76,0v-2.45a16.09,16.09,0,0,0,5.38-4.6,16,16,0,0,0,5.38,4.6Z"/></g></g></svg>