<svg xmlns="http://www.w3.org/2000/svg" viewBox="0 0 148.1 189.39"><defs><style>.cls-1{fill:#202020;}.cls-2{fill:#202020;}</style></defs><title>eat-shops</title><g id="Слой_2" data-name="Слой 2"><g id="Layer_1" data-name="Layer 1"><path class="cls-1" d="M148.1,178.17,144.39,59.69a11.17,11.17,0,0,0-11.1-11H107.37V33.15c-1.83-44.22-64.82-44.18-66.64,0V48.7H14.81a11.17,11.17,0,0,0-11.1,11L0,178.17A10.61,10.61,0,0,0,3.06,186a11.3,11.3,0,0,0,8,3.42H137a11.3,11.3,0,0,0,8-3.42A10.68,10.68,0,0,0,148.1,178.17Zm-100-145c1.43-34.39,50.42-34.36,51.84,0V48.7H48.13Zm91.59,147.67A3.82,3.82,0,0,1,137,182H11.11a3.82,3.82,0,0,1-2.73-1.16,3.3,3.3,0,0,1-1-2.42l3.7-118.48a3.81,3.81,0,0,1,3.7-3.82H40.73v6.28a3.7,3.7,0,0,0,7.4,0V56.1H100v6.28a3.7,3.7,0,0,0,7.4,0V56.1h25.92a3.8,3.8,0,0,1,3.7,3.82L140.7,178.4A3.35,3.35,0,0,1,139.72,180.82Z"/><path class="cls-2" d="M88.62,137.84c-3.61-.9-4.53-1.77-6.61-4.82a9.66,9.66,0,0,0-15.92,0c-2.08,3-3,3.92-6.61,4.82a5.19,5.19,0,0,0,1.24,10.22H87.38A5.19,5.19,0,0,0,88.62,137.84Z"/><path class="cls-2" d="M74.05,109.08c3.89.1,4.86-7.54,2.3-10.53a3,3,0,0,0-2.3-1.11C69.1,97.39,69.09,109.13,74.05,109.08Z"/><path class="cls-2" d="M49.55,119.89c1.78-.47,3.11-2.69,2.07-6.58-1.06-3.66-2.92-5.11-5.09-4.66a3.08,3.08,0,0,0-1.93,1.67A8.59,8.59,0,0,0,47,119.41,3,3,0,0,0,49.55,119.89Z"/><path class="cls-2" d="M25.92,122.75a48.13,48.13,0,0,0,96.26,0C119.46,58.89,28.63,58.91,25.92,122.75ZM74.05,90c14.8.18,14.8,26.27,0,26.45a10.53,10.53,0,0,1-7.88-3.64,14.3,14.3,0,0,1-3.23-9.58C62.94,94.57,68.53,90,74.05,90ZM37.31,117.15c-2.25-8.39,2-14.22,7.31-15.65A10.48,10.48,0,0,1,53.17,103a15.83,15.83,0,0,1,5,18.51,10.51,10.51,0,0,1-6.67,5.56C45.36,128.44,39.65,125.26,37.31,117.15Zm50.07,38.31H60.72c-14.78-.31-17.33-20.93-3-24.8.25-.06,1-.25,1.23-.35s.76-1,1.06-1.46c6.53-9.87,21.63-9.87,28.16,0,.3.43.84,1.23,1.06,1.46s1,.29,1.23.35C104.7,134.53,102.18,155.14,87.38,155.46Zm9.26-28.41A10.51,10.51,0,0,1,90,121.49a14.34,14.34,0,0,1-.64-10.09c2.25-8.39,8.82-11.33,14.15-9.9a10.49,10.49,0,0,1,6.67,5.56,14.23,14.23,0,0,1,.64,10.09C108.45,125.26,102.74,128.44,96.64,127.05Z"/><path class="cls-2" d="M101.57,108.65c-2.17-.45-4,1-5.08,4.66a7.09,7.09,0,0,0,.13,4.91,3,3,0,0,0,1.93,1.67c1.78.48,4-.78,5.09-4.66a7.08,7.08,0,0,0-.14-4.91A3.08,3.08,0,0,0,101.57,108.65Z"/></g></g></svg>