<svg xmlns="http://www.w3.org/2000/svg"
     viewBox="0 0 68.04 68.04">
    <g>
        <g>
            <path d="M57.83,68H45.93a2.27,2.27,0,0,1-2.27-2.27V43.94a2.27,2.27,0,0,1,2.27-2.27h4.41l2.16-5.38H45.93A2.27,2.27,0,0,1,43.66,34V26.08a3.88,3.88,0,0,1,2.08-3.71,6.92,6.92,0,0,1,3.15-.55h2.7V16.44H45.93a9.65,9.65,0,0,0-9.64,9.64V34A2.27,2.27,0,0,1,34,36.29H28.35v5.38H34a2.27,2.27,0,0,1,2.27,2.27V65.77A2.27,2.27,0,0,1,34,68H10.21A10.22,10.22,0,0,1,0,57.83V10.21A10.22,10.22,0,0,1,10.21,0H57.83A10.22,10.22,0,0,1,68,10.21V57.83A10.22,10.22,0,0,1,57.83,68ZM48.19,63.5h9.64a5.67,5.67,0,0,0,5.67-5.67V10.21a5.67,5.67,0,0,0-5.67-5.67H10.21a5.67,5.67,0,0,0-5.67,5.67V57.83a5.67,5.67,0,0,0,5.67,5.67H31.75V46.21H26.08a2.27,2.27,0,0,1-2.27-2.27V34a2.27,2.27,0,0,1,2.27-2.27h5.67V26.08A14.19,14.19,0,0,1,45.93,11.91h7.93a2.26,2.26,0,0,1,2.27,2.26V24.1a2.26,2.26,0,0,1-2.27,2.26h-5l-.7,0v5.37h7.66A2.26,2.26,0,0,1,58,34.86l-4,9.92a2.26,2.26,0,0,1-2.1,1.43H48.19Z"/></g></g></svg>