<svg
        xmlns="http://www.w3.org/2000/svg"
        viewBox="0 0 32 32">
    <g><g id="Слой_1-2"><path d="M13,32a1,1,0,0,1-.47-.12A1,1,0,0,1,12,31V18.17a1.71,1.71,0,0,0-.54-1.23L.76,7.14A2.31,2.31,0,0,1,0,5.42V2.33A2.34,2.34,0,0,1,2.33,0H29.67A2.34,2.34,0,0,1,32,2.33V5.42a2.34,2.34,0,0,1-.75,1.72L20.54,17A1.67,1.67,0,0,0,20,18.17v8.12a2.34,2.34,0,0,1-1,1.94l-5.41,3.6A1,1,0,0,1,13,32ZM2.33,2A.33.33,0,0,0,2,2.33V5.42a.36.36,0,0,0,.11.25l10.7,9.8A3.66,3.66,0,0,1,14,18.17v11l3.85-2.57a.33.33,0,0,0,.15-.27V18.17a3.66,3.66,0,0,1,1.19-2.7l10.7-9.8A.36.36,0,0,0,30,5.42V2.33A.33.33,0,0,0,29.67,2Z"/></g></g></svg>