<svg xmlns="http://www.w3.org/2000/svg" viewBox="0 0 68.04 57.14"><title>ic_favorite</title><g id="Слой_2" data-name="Слой 2"><g id="Capa_1" data-name="Capa 1"><path d="M62.4,5.28a19.69,19.69,0,0,0-26.84,0L34,6.74,32.48,5.28a19.69,19.69,0,0,0-26.84,0,17.6,17.6,0,0,0,0,25.82L32.38,56.49a2.39,2.39,0,0,0,3.28,0L62.4,31.1a17.6,17.6,0,0,0,0-25.82ZM59.11,27.64,34,51.46,8.93,27.64a12.81,12.81,0,0,1,0-18.9,14.85,14.85,0,0,1,20.26,0l3.18,3a2.38,2.38,0,0,0,3.29,0l3.19-3a14.87,14.87,0,0,1,20.26,0,12.83,12.83,0,0,1,0,18.9Z"/></g></g></svg>