<svg xmlns="http://www.w3.org/2000/svg" viewBox="0 0 149.16 149.17"><defs><style>.cls-1{fill:#202020;}</style></defs><title>helps-founds</title><g id="Слой_2" data-name="Слой 2"><g id="Режим_изоляции" data-name="Режим изоляции"><path class="cls-1" d="M146.25,125.86H125.86V112.61h1.35a3.2,3.2,0,0,0,3-1.58l2.29-3.92,3.93-2.3a3.18,3.18,0,0,0,1.57-2.74l0-4.54,2.23-3.91a3.16,3.16,0,0,0,0-3.19l-2.26-4,0-4.27a3.21,3.21,0,0,0-1.57-3l-3.93-2.29L130.23,73a3.21,3.21,0,0,0-2.75-1.57h-1.62V14.57a14.52,14.52,0,0,0-4.32-10.35A14.34,14.34,0,0,0,111.26,0H14.57A14.59,14.59,0,0,0,0,14.57v5.82a2.91,2.91,0,0,0,2.91,2.92h20.4V134.6a14.58,14.58,0,0,0,14.56,14.57H134.6a14.58,14.58,0,0,0,14.56-14.57v-5.83A2.91,2.91,0,0,0,146.25,125.86ZM129.06,92a11.65,11.65,0,0,1-23.3,0C106.4,76.54,128.43,76.54,129.06,92ZM23.31,17.48H5.83V14.57c.48-11.6,17-11.59,17.48,0Zm23.3,111.29v5.83c-.48,11.6-17,11.59-17.48,0v-120a14.42,14.42,0,0,0-2.92-8.74h85.07a8.59,8.59,0,0,1,6.16,2.53A8.69,8.69,0,0,1,120,14.57V69.7l-1-.56a3.14,3.14,0,0,0-3.19,0l-4,2.26-4.27,0a3.19,3.19,0,0,0-3,1.57l-2.29,3.93-3.93,2.29a3.18,3.18,0,0,0-1.49,2.1H43.7a2.92,2.92,0,0,0,0,5.83H96.41l-1.86,3.26a3.18,3.18,0,0,0,0,3.2v0H43.7a2.92,2.92,0,0,0,0,5.83H96.79v2.38a3.19,3.19,0,0,0,1.57,3l3.93,2.3,2.29,3.92a3.18,3.18,0,0,0,2.75,1.57l4.54,0,3.91,2.23a3.19,3.19,0,0,0,3.19,0l1-.6v11.57H49.53a2.92,2.92,0,0,0-2.92,2.91Zm88,14.57H49.52a14.53,14.53,0,0,0,2.92-8.74v-2.91h90.9v2.91h0A8.75,8.75,0,0,1,134.6,143.34Z"/><path class="cls-1" d="M61.7,49.45c-11.24,3-9.24,19.27,2.39,19.52h21c11.64-.26,13.63-16.48,2.39-19.52a8.69,8.69,0,0,1-1-.28c-.18-.18-.6-.8-.84-1.14A13.45,13.45,0,0,0,63.5,48c-.23.34-.66,1-.83,1.14A8.85,8.85,0,0,1,61.7,49.45Zm6.62,1.86a7.6,7.6,0,0,1,12.53,0c1.63,2.4,2.36,3.08,5.2,3.79a4.08,4.08,0,0,1-1,8h-21a4.08,4.08,0,0,1-1-8C66,54.39,66.68,53.71,68.32,51.31Z"/><path class="cls-1" d="M74.58,38.3c11.65-.15,11.65-20.68,0-20.82-4.34,0-8.74,3.58-8.74,10.41a11.25,11.25,0,0,0,2.54,7.54A8.3,8.3,0,0,0,74.58,38.3Zm0-15c2.16.14,2.89,2.32,2.92,4.58,0,6.13-5.86,6.13-5.83,0C71.67,24.72,73.13,23.31,74.58,23.31Z"/><path class="cls-1" d="M62.05,42.23a11.22,11.22,0,0,0,.51-7.94c-1.77-6.6-6.94-8.91-11.14-7.79s-7.52,5.72-5.75,12.32C47.94,47.94,58.12,49.68,62.05,42.23Zm-9.12-10.1c1.7-.35,3.17.79,4,3.67.82,3.06-.23,4.8-1.63,5.18-2.13.41-3.38-1.49-4-3.67C50.48,34.25,51.53,32.51,52.93,32.13Z"/><path class="cls-1" d="M92.36,46.61c4.79,1.1,9.29-1.41,11.13-7.79a11.22,11.22,0,0,0-.5-7.94,8.26,8.26,0,0,0-5.25-4.38c-4.19-1.12-9.36,1.19-11.13,7.79a11.22,11.22,0,0,0,.5,7.94A8.26,8.26,0,0,0,92.36,46.61Zm3.88-14.48a2.38,2.38,0,0,1,1.52,1.32,5.55,5.55,0,0,1,.1,3.86c-.81,3.06-2.6,4-4,3.67a2.41,2.41,0,0,1-1.52-1.32C91,37,93.22,31.26,96.24,32.13Z"/><path class="cls-1" d="M60,111.73H89.15a2.92,2.92,0,0,0,0-5.83H60A2.92,2.92,0,0,0,60,111.73Z"/><path class="cls-1" d="M117.41,86.17A5.83,5.83,0,1,0,123.24,92,5.84,5.84,0,0,0,117.41,86.17Z"/></g></g></svg>