<svg xmlns="http://www.w3.org/2000/svg" viewBox="0 0 69.77 69.78"><title>Ресурс 1</title><g id="Слой_2" data-name="Слой 2"><g id="Слой_1-2" data-name="Слой 1"><path d="M35.58,69.78h-.7c-5.47,0-10.52-.13-15.44-.43a20.6,20.6,0,0,1-11.89-4.5A19.12,19.12,0,0,1,1.13,54.49a46.18,46.18,0,0,1-1-11C0,41,0,38,0,34.89s0-6.1.08-8.64a46.18,46.18,0,0,1,1-11A19.12,19.12,0,0,1,7.55,4.93,20.6,20.6,0,0,1,19.44.43C24.36.13,29.41,0,34.89,0S45.42.13,50.33.43a20.63,20.63,0,0,1,11.9,4.5,19.05,19.05,0,0,1,6.41,10.36,45.69,45.69,0,0,1,1.06,11c0,2.54.07,5.56.07,8.63h0c0,3.07,0,6.09-.07,8.64a45.69,45.69,0,0,1-1.06,11,19.05,19.05,0,0,1-6.41,10.36,20.63,20.63,0,0,1-11.9,4.5C45.63,69.64,40.79,69.78,35.58,69.78Zm-.7-5.46c5.38,0,10.32-.12,15.12-.41a15,15,0,0,0,8.78-3.29,13.72,13.72,0,0,0,4.58-7.48,41.7,41.7,0,0,0,.89-9.68c0-2.53.07-5.53.07-8.57s0-6-.07-8.57a41.84,41.84,0,0,0-.89-9.69,13.76,13.76,0,0,0-4.58-7.48A15,15,0,0,0,50,5.87c-4.8-.3-9.74-.43-15.11-.42s-10.32.12-15.12.42A15,15,0,0,0,11,9.15a13.87,13.87,0,0,0-4.58,7.48,41.84,41.84,0,0,0-.88,9.69c0,2.53-.07,5.53-.08,8.57s0,6,.08,8.57a41.7,41.7,0,0,0,.88,9.68A13.84,13.84,0,0,0,11,60.62a15,15,0,0,0,8.78,3.29C24.57,64.2,29.52,64.34,34.88,64.32Zm-.13-12.4a17,17,0,1,1,17-17A17,17,0,0,1,34.75,51.92Zm0-28.62A11.59,11.59,0,1,0,46.34,34.89,11.6,11.6,0,0,0,34.75,23.3ZM53.69,12.4a4.09,4.09,0,1,0,4.09,4.09A4.09,4.09,0,0,0,53.69,12.4Z"/></g></g></svg>