<svg xmlns="http://www.w3.org/2000/svg" viewBox="0 0 70 75.12"><title>Ресурс 1</title><g id="Слой_2" data-name="Слой 2"><g id="Capa_1" data-name="Capa 1"><path d="M35,42.31C12.43,42.31,0,53,0,72.38a2.74,2.74,0,0,0,2.74,2.74H67.26A2.74,2.74,0,0,0,70,72.38C70,53,57.57,42.31,35,42.31ZM5.58,69.64c1.08-14.5,11-21.85,29.42-21.85s28.34,7.35,29.42,21.85Z"/><path d="M35,0C24.63,0,16.82,8,16.82,18.55,16.82,29.44,25,38.29,35,38.29s18.19-8.85,18.19-19.74C53.19,8,45.37,0,35,0Zm0,32.81c-7,0-12.7-6.4-12.7-14.26C22.3,11,27.64,5.48,35,5.48S47.7,11.1,47.7,18.55C47.7,26.41,42,32.81,35,32.81Z"/></g></g></svg>