<svg xmlns="http://www.w3.org/2000/svg"
     fill="#ea543a"
     viewBox="0 0 90.71 87.09">
    <title>ic_star_stroke</title>
    <g id="Слой_2" data-name="Слой 2"><g id="Слой_1-2" data-name="Слой 1"><path d="M21.37,87.09a6.55,6.55,0,0,1-6.38-8l5.33-23.5L2.24,39.73A6.54,6.54,0,0,1,6,28.29l23.93-2.18L39.34,4a6.54,6.54,0,0,1,12,0l9.46,22.14,23.92,2.18a6.54,6.54,0,0,1,3.72,11.45L70.39,55.59l5.33,23.49A6.54,6.54,0,0,1,66,86.15L45.35,73.82,24.72,86.16A6.53,6.53,0,0,1,21.37,87.09Zm24-83.24a2.71,2.71,0,0,0-2.47,1.64L33,28.69a1.94,1.94,0,0,1-1.6,1.16L6.3,32.13a2.69,2.69,0,0,0-1.53,4.7l19,16.62a2,2,0,0,1,.61,1.88L18.75,79.94a2.69,2.69,0,0,0,4,2.91L44.36,69.92a2,2,0,0,1,2,0L68,82.84a2.62,2.62,0,0,0,1.38.39A2.68,2.68,0,0,0,72,79.94L66.37,55.32A2,2,0,0,1,67,53.45l19-16.62a2.69,2.69,0,0,0-1.52-4.7L59.34,29.85a1.94,1.94,0,0,1-1.6-1.16L47.83,5.49A2.71,2.71,0,0,0,45.35,3.85Z"/></g></g></svg>