<svg xmlns="http://www.w3.org/2000/svg" viewBox="0 0 70.58 70.58"><title>Ресурс 1</title><g id="Слой_2" data-name="Слой 2"><g id="Capa_1" data-name="Capa 1"><g id="_4" data-name="4"><path d="M69.91,66.74,51.69,48.81a28.82,28.82,0,0,0,7.7-19.59A29.45,29.45,0,0,0,29.7,0,29.46,29.46,0,0,0,0,29.22,29.47,29.47,0,0,0,29.7,58.45a29.86,29.86,0,0,0,18.69-6.53l18.29,18a2.31,2.31,0,0,0,3.23,0A2.23,2.23,0,0,0,69.91,66.74ZM29.7,54A24.93,24.93,0,0,1,4.57,29.22,24.93,24.93,0,0,1,29.7,4.5,24.93,24.93,0,0,1,54.82,29.22,24.93,24.93,0,0,1,29.7,54Z"/></g></g></g></svg>