<svg xmlns="http://www.w3.org/2000/svg" viewBox="0 0 68.03 68.03"><title>Ресурс 1</title><g id="Слой_2" data-name="Слой 2"><g id="Capa_1" data-name="Capa 1"><path d="M58,68H10A10,10,0,0,1,0,58V10A10,10,0,0,1,10,0H58A10,10,0,0,1,68,10V58A10,10,0,0,1,58,68ZM10,4a6,6,0,0,0-6,6V58a6,6,0,0,0,6,6H58a6,6,0,0,0,6-6V10a6,6,0,0,0-6-6Z"/><path d="M34.59,48.06a17.28,17.28,0,0,1-8.81-2.2,21.46,21.46,0,0,1-6.59-6.14,76.74,76.74,0,0,1-8.08-14.39A3,3,0,0,1,14,20.82c1,0,2,0,3,0l3.14,0a3.76,3.76,0,0,1,3.49,2.5,35.15,35.15,0,0,0,3.88,7.2,20.45,20.45,0,0,0-.14-4.5c-.06-.42-.16-.44-.4-.49a2.27,2.27,0,0,1-1.36-3.9A4.23,4.23,0,0,1,29,20h7a2.33,2.33,0,0,1,.38,0,3.63,3.63,0,0,1,3.09,3.51,2.28,2.28,0,0,1,0,.26v6.51a26,26,0,0,0,2.59-4.36c.44-.91.84-1.88,1.21-2.81a3.48,3.48,0,0,1,3.39-2.33h6.8a5.3,5.3,0,0,1,.93.07,3.42,3.42,0,0,1,2.46,1.48,3.46,3.46,0,0,1,.19,2.87,17.85,17.85,0,0,1-2.85,5.05l-.12.16c-.54.75-1.09,1.48-1.63,2.19s-1.23,1.62-1.81,2.44a3.69,3.69,0,0,0-.27.42,3.52,3.52,0,0,0,.37.4l1.12,1.07a38.23,38.23,0,0,1,3.19,3.28,13.67,13.67,0,0,1,1.74,2.52,3.84,3.84,0,0,1,0,3.65A3.17,3.17,0,0,1,54.24,48H48a6.77,6.77,0,0,1-5.45-2.2c-.6-.62-1.17-1.26-1.73-1.87-.26-.3-.53-.6-.8-.89l-.22-.24a6.87,6.87,0,0,0-.17,1.4c-.12,2.47-1.34,3.68-3.87,3.8C35.36,48.05,35,48.06,34.59,48.06ZM15.21,24.76a69.67,69.67,0,0,0,7.18,12.61,17.51,17.51,0,0,0,5.36,5.05,13.49,13.49,0,0,0,6.84,1.67l1,0h.09v0a8.24,8.24,0,0,1,.89-3.76,3.3,3.3,0,0,1,2.89-1.84,3.65,3.65,0,0,1,2,.63,7.84,7.84,0,0,1,1.5,1.32c.28.3.55.61.83.92.54.61,1.06,1.19,1.6,1.74a2.8,2.8,0,0,0,2.38,1H53a12.72,12.72,0,0,0-1-1.31,34.54,34.54,0,0,0-2.88-2.94L48,38.71a4.7,4.7,0,0,1-1.61-2.85,4.54,4.54,0,0,1,1.06-3.12c.61-.86,1.25-1.7,1.87-2.52s1.07-1.41,1.58-2.12l.11-.16a17.81,17.81,0,0,0,2-3.18H46.93c-.38.95-.79,2-1.28,2.94a26,26,0,0,1-4.29,6.55l-.06.07a3.4,3.4,0,0,1-2.5,1.29,2.83,2.83,0,0,1-.9-.15l-.06,0c-1.92-.7-2.31-3-2.29-3.87V23.94H30.82a5.2,5.2,0,0,1,.46,1.49,25.67,25.67,0,0,1,.11,6.07,7.26,7.26,0,0,1-.51,2.21,2.9,2.9,0,0,1-2.69,2A3.3,3.3,0,0,1,26.33,35a8.29,8.29,0,0,1-2.06-2.2,40.36,40.36,0,0,1-4.34-8v0l-2.94,0Z"/></g></g></svg>